<svg width="116" height="116" viewBox="0 0 116 116" fill="none" xmlns="http://www.w3.org/2000/svg">
<path d="M48.8002 89.7C49.96 89.7 50.9002 88.7598 50.9002 87.6C50.9002 86.4402 49.96 85.5 48.8002 85.5C47.6404 85.5 46.7002 86.4402 46.7002 87.6C46.7002 88.7598 47.6404 89.7 48.8002 89.7Z" fill="white"/>
<path d="M31.6999 80.2992C32.4179 80.2992 32.9999 79.7172 32.9999 78.9992C32.9999 78.2813 32.4179 77.6992 31.6999 77.6992C30.9819 77.6992 30.3999 78.2813 30.3999 78.9992C30.3999 79.7172 30.9819 80.2992 31.6999 80.2992Z" fill="white"/>
<path d="M61.4001 77.5004C62.1181 77.5004 62.7001 76.9184 62.7001 76.2004C62.7001 75.4824 62.1181 74.9004 61.4001 74.9004C60.6821 74.9004 60.1001 75.4824 60.1001 76.2004C60.1001 76.9184 60.6821 77.5004 61.4001 77.5004Z" fill="white"/>
<path d="M61.7999 89.2992C63.9538 89.2992 65.6999 87.5979 65.6999 85.4992C65.6999 83.4005 63.9538 81.6992 61.7999 81.6992C59.646 81.6992 57.8999 83.4005 57.8999 85.4992C57.8999 87.5979 59.646 89.2992 61.7999 89.2992Z" fill="white"/>
<path d="M58 115.7C26.3 115.7 0.5 89.8996 0.5 58.1996C0.5 26.4996 26.3 0.599609 58 0.599609C89.7 0.599609 115.5 26.3996 115.5 58.0996C115.5 89.7996 89.7 115.7 58 115.7ZM58 4.59961C28.5 4.59961 4.5 28.5996 4.5 58.0996C4.5 87.5996 28.5 111.6 58 111.6C87.5 111.6 111.5 87.5996 111.5 58.0996C111.5 28.5996 87.5 4.59961 58 4.59961Z" fill="#9D9D9C"/>
<path d="M94.0999 29.6992H21.8999C14.6999 37.9992 10.3999 48.6992 10.3999 59.9992C10.3999 85.5992 31.7999 106.499 57.9999 106.499C84.1999 106.499 105.6 85.6992 105.6 59.9992C105.6 48.6992 101.3 37.9992 94.0999 29.6992Z" fill="#68E1FD"/>
<path d="M24.1999 54.9984C26.0224 54.9984 27.4999 53.521 27.4999 51.6984C27.4999 49.8759 26.0224 48.3984 24.1999 48.3984C22.3774 48.3984 20.8999 49.8759 20.8999 51.6984C20.8999 53.521 22.3774 54.9984 24.1999 54.9984Z" fill="black"/>
<path d="M51.8 96.3988C53.6225 96.3988 55.1 94.9214 55.1 93.0988C55.1 91.2763 53.6225 89.7988 51.8 89.7988C49.9775 89.7988 48.5 91.2763 48.5 93.0988C48.5 94.9214 49.9775 96.3988 51.8 96.3988Z" fill="black"/>
<path d="M90.3 39.6C92.1225 39.6 93.6 38.1225 93.6 36.3C93.6 34.4775 92.1225 33 90.3 33C88.4775 33 87 34.4775 87 36.3C87 38.1225 88.4775 39.6 90.3 39.6Z" fill="black"/>
<path d="M24.7001 81.5C25.8599 81.5 26.8001 80.6046 26.8001 79.5C26.8001 78.3954 25.8599 77.5 24.7001 77.5C23.5403 77.5 22.6001 78.3954 22.6001 79.5C22.6001 80.6046 23.5403 81.5 24.7001 81.5Z" fill="black"/>
<path d="M93.1 83C94.2598 83 95.2 82.1046 95.2 81C95.2 79.8954 94.2598 79 93.1 79C91.9402 79 91 79.8954 91 81C91 82.1046 91.9402 83 93.1 83Z" fill="black"/>
<path d="M60.1 52.3984C61.2598 52.3984 62.2 51.503 62.2 50.3984C62.2 49.2939 61.2598 48.3984 60.1 48.3984C58.9402 48.3984 58 49.2939 58 50.3984C58 51.503 58.9402 52.3984 60.1 52.3984Z" fill="black"/>
<path d="M70.1 79C71.2598 79 72.2 78.1046 72.2 77C72.2 75.8954 71.2598 75 70.1 75C68.9402 75 68 75.8954 68 77C68 78.1046 68.9402 79 70.1 79Z" fill="black"/>
<path d="M47 53C47.5523 53 48 52.5523 48 52C48 51.4477 47.5523 51 47 51C46.4477 51 46 51.4477 46 52C46 52.5523 46.4477 53 47 53Z" fill="black"/>
<path d="M81 54C81.5523 54 82 53.5523 82 53C82 52.4477 81.5523 52 81 52C80.4477 52 80 52.4477 80 53C80 53.5523 80.4477 54 81 54Z" fill="black"/>
<path d="M54.7997 79.6984C58.9971 79.6984 62.3997 76.3853 62.3997 72.2984C62.3997 68.2115 58.9971 64.8984 54.7997 64.8984C50.6023 64.8984 47.1997 68.2115 47.1997 72.2984C47.1997 76.3853 50.6023 79.6984 54.7997 79.6984Z" fill="black"/>
<path d="M75.6 48.8C79.7974 48.8 83.2 45.4869 83.2 41.4C83.2 37.3131 79.7974 34 75.6 34C71.4026 34 68 37.3131 68 41.4C68 45.4869 71.4026 48.8 75.6 48.8Z" fill="black"/>
<path d="M91.8 49.1996C93.6225 49.1996 95.1 47.7222 95.1 45.8996C95.1 44.0771 93.6225 42.5996 91.8 42.5996C89.9775 42.5996 88.5 44.0771 88.5 45.8996C88.5 47.7222 89.9775 49.1996 91.8 49.1996Z" fill="black"/>
<path d="M95.0998 64.2992C96.9223 64.2992 98.3998 62.8218 98.3998 60.9992C98.3998 59.1767 96.9223 57.6992 95.0998 57.6992C93.2773 57.6992 91.7998 59.1767 91.7998 60.9992C91.7998 62.8218 93.2773 64.2992 95.0998 64.2992Z" fill="black"/>
<path d="M34.9997 69.2992C36.8222 69.2992 38.2997 67.8218 38.2997 65.9992C38.2997 64.1767 36.8222 62.6992 34.9997 62.6992C33.1772 62.6992 31.6997 64.1767 31.6997 65.9992C31.6997 67.8218 33.1772 69.2992 34.9997 69.2992Z" fill="black"/>
<path d="M78.3998 72C81.7687 72 84.4998 69.3137 84.4998 66C84.4998 62.6863 81.7687 60 78.3998 60C75.0309 60 72.2998 62.6863 72.2998 66C72.2998 69.3137 75.0309 72 78.3998 72Z" fill="black"/>
<path d="M72.2997 95.8984C75.6686 95.8984 78.3997 93.2121 78.3997 89.8984C78.3997 86.5847 75.6686 83.8984 72.2997 83.8984C68.9308 83.8984 66.1997 86.5847 66.1997 89.8984C66.1997 93.2121 68.9308 95.8984 72.2997 95.8984Z" fill="black"/>
<path d="M41.4997 32.7987C38.3997 29.7987 30.2997 32.7987 23.3997 39.5987C16.4997 46.2987 13.3997 54.1987 16.3997 57.1987C19.4997 60.1987 27.5997 57.1987 34.4997 50.3987C41.4997 43.5987 44.5997 35.7987 41.4997 32.7987Z" fill="#FAF9FA"/>
</svg>
