<svg width="116" height="116" viewBox="0 0 116 116" fill="none" xmlns="http://www.w3.org/2000/svg">
<path d="M48.1998 21.7988C66.3998 21.7988 78.5998 34.8988 78.5998 53.1988C78.5998 71.4988 66.3998 84.5988 48.1998 84.5988C29.9998 84.5988 17.7998 71.4988 17.7998 53.1988C17.7998 34.8988 29.9998 21.7988 48.1998 21.7988ZM48.1998 69.6988C52.8998 69.6988 60.0998 66.5988 60.0998 53.1988C60.0998 39.7988 52.8998 36.6988 48.1998 36.6988C43.4998 36.6988 36.2998 39.7988 36.2998 53.1988C36.2998 66.5988 43.4998 69.6988 48.1998 69.6988Z" fill="#68E1FD"/>
<path d="M78.4997 67.8984C78.0997 60.5984 82.5997 56.3984 89.6997 56.3984C96.0997 56.3984 100.5 59.0984 100.5 64.6984C100.5 71.4984 93.8997 73.5984 88.8997 76.6984H100.9V83.1984H77.8997C77.6997 80.5984 78.4997 78.3984 79.7997 76.6984C81.9997 73.5984 85.7997 71.5984 89.1997 69.4984C90.5997 68.6984 92.7997 67.5984 92.7997 65.6984C92.7997 63.2984 91.3997 62.4984 89.5997 62.4984C86.5997 62.4984 85.4997 64.6984 85.5997 67.8984H78.4997Z" fill="#68E1FD"/>
<path d="M58 115.6C26.3 115.6 0.5 89.7996 0.5 58.0996C0.5 26.3996 26.3 0.599609 58 0.599609C89.7 0.599609 115.5 26.3996 115.5 58.0996C115.5 89.7996 89.7 115.6 58 115.6ZM58 4.59961C28.5 4.59961 4.5 28.5996 4.5 58.0996C4.5 87.5996 28.5 111.6 58 111.6C87.5 111.6 111.5 87.5996 111.5 58.0996C111.5 28.5996 87.5 4.59961 58 4.59961Z" fill="#9D9D9C"/>
</svg>
