<svg width="55" height="115" viewBox="0 0 55 115" fill="none" xmlns="http://www.w3.org/2000/svg">
<g clip-path="url(#clip0_1802_98)">
<path fill-rule="evenodd" clip-rule="evenodd" d="M33.097 13.1808C33.097 10.7851 32.1171 8.60517 30.535 7.02527C28.9551 5.44537 26.7774 4.46327 24.3817 4.46327C21.986 4.46327 19.8083 5.44537 18.2261 7.02527C16.6462 8.60517 15.6664 10.7851 15.6664 13.1808V74.1856C9.62772 77.2824 5.49706 83.5683 5.49706 90.8206C5.49706 101.14 13.8618 109.505 24.1817 109.505C34.4993 109.505 42.864 101.14 42.864 90.8206C42.864 83.7301 38.9154 77.5634 33.097 74.3968V13.1808ZM42.273 21.2578V17.2126H52.8131C53.3495 17.2126 53.864 17.4257 54.2433 17.805C54.6226 18.1843 54.8357 18.6988 54.8357 19.2352C54.8357 19.7716 54.6226 20.2861 54.2433 20.6654C53.864 21.0447 53.3495 21.2578 52.8131 21.2578H42.273ZM42.273 32.3014V28.2561H52.8131C53.3495 28.2561 53.864 28.4692 54.2433 28.8486C54.6226 29.2279 54.8357 29.7423 54.8357 30.2788C54.8357 30.8152 54.6226 31.3297 54.2433 31.709C53.864 32.0883 53.3495 32.3014 52.8131 32.3014H42.273ZM42.273 43.345V39.2997H52.8131C53.3495 39.2997 53.864 39.5128 54.2433 39.8921C54.6226 40.2714 54.8357 40.7859 54.8357 41.3223C54.8357 41.8588 54.6226 42.3732 54.2433 42.7525C53.864 43.1319 53.3495 43.345 52.8131 43.345H42.273ZM42.273 54.3885V50.3433H52.8131C53.3495 50.3433 53.864 50.5564 54.2433 50.9357C54.6226 51.315 54.8357 51.8295 54.8357 52.3659C54.8357 52.9023 54.6226 53.4168 54.2433 53.7961C53.864 54.1754 53.3495 54.3885 52.8131 54.3885H42.273ZM42.273 65.4321V61.3868H52.8131C53.3495 61.3868 53.864 61.5999 54.2433 61.9792C54.6226 62.3586 54.8357 62.873 54.8357 63.4095C54.8357 63.9459 54.6226 64.4604 54.2433 64.8397C53.864 65.219 53.3495 65.4321 52.8131 65.4321H42.273ZM37.5602 70.6774C44.0709 75.0104 48.3611 82.4132 48.3611 90.8206C48.3611 104.174 37.5355 115 24.1817 115C10.8256 115 0 104.174 0 90.8206C0 82.2424 4.46777 74.7092 11.2009 70.4167V13.1808C11.2009 9.55356 12.6841 6.25667 15.0708 3.86997C17.4598 1.48101 20.7544 0 24.3817 0C28.0067 0 31.3036 1.48101 33.6925 3.86997C36.0792 6.25667 37.5602 9.55356 37.5602 13.1808V70.6774Z" fill="#9D9D9C"/>
<path fill-rule="evenodd" clip-rule="evenodd" d="M27.9842 77.6132V68.7676H20.3768V77.6132C14.6393 79.2628 10.439 84.5531 10.439 90.821C10.439 98.4103 16.5923 104.561 24.1816 104.561C31.7687 104.561 37.922 98.4103 37.922 90.821C37.922 84.5508 33.7239 79.2628 27.9842 77.6132Z" fill="#68E1FD"/>
</g>
<defs>
<clipPath id="clip0_1802_98">
<rect width="54.8357" height="115" fill="white"/>
</clipPath>
</defs>
</svg>
