<svg width="115" height="115" viewBox="0 0 115 115" fill="none" xmlns="http://www.w3.org/2000/svg">
<g clip-path="url(#clip0_1803_101)">
<path d="M43.7902 3.78153C46.9506 1.88298 50.3913 0.827417 54.0819 0.300663C56.4564 0.22461 58.782 0.22461 61.2129 0.224609C62.7688 0.575302 64.2219 0.915652 65.6694 1.27871C69.3574 2.20377 72.627 3.98793 75.587 6.31802C81.0024 10.5808 84.5754 16.1322 85.9237 22.8483C87.6886 31.6392 85.9584 39.8008 80.2866 46.9115C79.0452 48.468 77.5023 49.784 75.9336 51.2134C75.4874 51.3051 75.1852 51.3548 74.927 51.489C71.551 53.2434 67.8884 53.8861 64.1585 54.1021C60.593 54.3087 57.0931 53.715 53.7328 52.5153C52.2405 51.9825 50.8454 51.1774 49.4482 50.4337C50.2782 49.8555 50.6103 49.1475 50.5507 48.1905C50.4892 47.2042 50.537 46.2111 50.537 45.1463C52.368 45.1463 54.007 45.1572 55.6457 45.1428C56.9617 45.1313 57.7091 44.3827 57.7209 43.0655C57.7351 41.4601 57.7349 39.8544 57.721 38.249C57.7095 36.9281 56.9654 36.175 55.6517 36.1662C53.5235 36.1518 51.3952 36.1588 49.2669 36.1631C47.65 36.1664 46.949 36.8547 46.9442 38.4459C46.9335 41.9554 46.9286 45.4649 46.8446 48.963C45.9637 48.3545 45.1028 47.8199 44.3649 47.1498C40.7522 43.869 37.9047 40.0651 36.2147 35.4208C34.3891 30.4041 33.8858 25.3029 34.904 20.0654C36.0607 14.1158 38.765 8.99318 43.1549 4.77972C43.4314 4.5144 43.5814 4.11731 43.7902 3.78153ZM50.2695 24.2164C50.5529 24.4543 50.8549 24.6735 51.1166 24.9333C52.7607 26.5649 54.3924 28.2089 56.035 29.842C57.1072 30.9079 58.1507 31.0516 58.9689 30.2639C59.8161 29.4482 59.674 28.372 58.5579 27.2503C57.0295 25.7143 55.487 24.1923 53.9679 22.6472C53.5817 22.2544 53.2615 21.7967 53.0626 21.3098C53.4286 21.0938 53.7946 20.8779 54.3344 20.6497C57.6695 19.5902 60.781 19.9046 63.5603 22.1775C65.7048 23.9312 66.4219 26.3505 66.7192 28.9735C66.8485 30.1138 67.526 30.7485 68.6325 30.7611C70.9508 30.7875 73.27 30.7923 75.5881 30.7591C76.8143 30.7415 77.6271 29.8234 77.4724 28.6169C77.167 26.2336 76.9493 23.8711 75.989 21.5734C73.5826 15.8156 69.4218 12.0534 63.5823 10.1391C61.1122 9.32931 58.5345 9.12191 55.8926 9.38538C53.8619 9.58789 51.9248 9.95146 49.932 10.846C44.6528 13.2248 41.0124 17.1247 39.0473 22.5777C38.322 24.5907 37.8946 26.6579 37.9635 28.8082C38.0052 30.1101 38.6876 30.763 40.0173 30.7689C42.1494 30.7782 44.2816 30.777 46.4137 30.77C48.0342 30.7648 48.45 30.2729 48.7731 28.7188C49.0941 27.1747 49.6614 25.6818 50.2695 24.2164ZM63.9496 45.147C64.8331 45.147 65.7166 45.147 66.709 45.147C66.709 46.3798 66.6949 47.4557 66.7129 48.531C66.7322 49.6886 67.5244 50.5447 68.5284 50.5308C69.5268 50.5169 70.2945 49.6567 70.2984 48.4854C70.3098 45.0468 70.3113 41.608 70.2974 38.1694C70.2927 37.0113 69.4879 36.155 68.484 36.1684C67.4855 36.1818 66.728 37.042 66.7121 38.2127C66.6975 39.2845 66.709 40.3568 66.709 41.4506C65.4351 41.4506 64.3083 41.4506 63.1143 41.4506C63.1143 40.2681 63.1321 39.1863 63.1093 38.1054C63.0865 37.0239 62.3007 36.1838 61.3445 36.1684C60.3814 36.153 59.5367 36.9822 59.5303 38.0525C59.5095 41.5658 59.5118 45.0793 59.5283 48.5927C59.5333 49.6739 60.3344 50.5146 61.2904 50.5308C62.2946 50.5477 63.0879 49.6918 63.1115 48.5358C63.129 47.6765 63.0644 46.8117 63.1444 45.9595C63.1713 45.6733 63.5308 45.4182 63.9496 45.147Z" fill="#68E1FD"/>
<path d="M56.9258 115.225C56.3319 114.387 55.7389 113.591 55.3646 112.703C54.62 110.936 53.9779 109.125 53.3365 107.316C53.205 106.946 53.2362 106.508 53.2361 106.101C53.2308 89.9743 53.2305 73.8474 53.3239 57.5981C54.8499 57.5588 56.2814 57.7029 57.7135 57.7079C59.2181 57.7132 60.7232 57.5853 62.2281 57.5156C62.2243 72.8773 62.1725 88.2393 62.2627 103.6C62.2782 106.241 61.7163 108.639 60.7275 111.012C60.3732 111.862 60.1151 112.755 59.7208 113.585C59.4639 114.126 59.0404 114.587 58.6573 115.154C58.0905 115.225 57.558 115.225 56.9258 115.225Z" fill="#9D9D9C"/>
<path d="M62.3193 57.5067C60.7233 57.585 59.2182 57.7129 57.7136 57.7076C56.2816 57.7026 54.8501 57.5585 53.3198 57.4934C49.8154 56.9177 46.5827 55.8204 43.5705 54.118C38.9179 51.4885 35.2723 47.8251 32.6106 43.2035C30.6545 39.8069 29.3635 36.1236 29.0435 32.2385C28.6204 27.0999 29.1135 22.0407 31.3441 17.2506C33.1417 13.3905 35.5438 9.99442 38.76 7.23123C40.2564 5.94557 42.0006 4.94819 43.7114 3.80078C43.5816 4.11721 43.4316 4.51429 43.1551 4.77962C38.7652 8.99308 36.0609 14.1157 34.9043 20.0653C33.886 25.3028 34.3893 30.404 36.2149 35.4207C37.9049 40.065 40.7524 43.8689 44.3651 47.1497C45.103 47.8197 45.9639 48.3544 46.8666 49.0391C47.418 50.2266 48.2258 50.6935 49.4064 50.4958C50.8456 51.1773 52.2407 51.9824 53.733 52.5152C57.0934 53.7149 60.5932 54.3086 64.1587 54.102C67.8886 53.886 71.5513 53.2433 74.9272 51.4889C75.1854 51.3546 75.4876 51.305 75.8562 51.2162C73.8292 53.2352 71.3036 54.62 68.6203 55.6576C66.6132 56.4338 64.4848 56.896 62.3193 57.5067Z" fill="#68E1FD"/>
<path d="M50.0845 10.8202C51.9251 9.95127 53.8622 9.58769 55.8929 9.38518C58.5348 9.12172 61.1125 9.32912 63.5826 10.1389C69.4221 12.0533 73.5829 15.8154 75.9893 21.5732C76.9496 23.8709 77.1673 26.2334 77.4727 28.6167C77.6273 29.8232 76.8146 30.7413 75.5884 30.7589C73.2703 30.7921 70.9511 30.7873 68.6328 30.7609C67.5263 30.7483 66.8487 30.1136 66.7195 28.9733C66.4222 26.3503 65.705 23.931 63.5606 22.1773C60.7812 19.9044 57.6698 19.59 54.2307 20.5728C52.7793 17.2708 51.4319 14.0455 50.0845 10.8202Z" fill="#EFEEF0"/>
<path d="M50.0084 10.834C51.4319 14.0465 52.7794 17.2717 54.1439 20.5798C53.795 20.8786 53.4289 21.0946 52.9198 21.323C51.797 20.4313 50.8653 19.4667 49.8243 18.6398C48.7913 17.8192 47.6016 18.1758 47.0762 19.3566C46.6719 20.2654 47.1823 20.9268 47.7364 21.5499C48.5206 22.4318 49.3252 23.2956 50.1211 24.1671C49.6617 25.6825 49.0944 27.1754 48.7734 28.7196C48.4503 30.2737 48.0345 30.7655 46.414 30.7708C44.2819 30.7777 42.1497 30.779 40.0176 30.7696C38.6879 30.7638 38.0055 30.1109 37.9638 28.8089C37.8949 26.6586 38.3223 24.5915 39.0477 22.5785C41.0127 17.1254 44.6531 13.2255 50.0084 10.834Z" fill="#F98B87"/>
<path d="M63.8443 45.1477C63.5312 45.418 63.1716 45.673 63.1447 45.9593C63.0648 46.8115 63.1293 47.6762 63.1118 48.5355C63.0882 49.6915 62.2949 50.5475 61.2908 50.5305C60.3347 50.5144 59.5337 49.6737 59.5286 48.5924C59.5121 45.0791 59.5098 41.5655 59.5307 38.0522C59.537 36.982 60.3817 36.1527 61.3449 36.1682C62.3011 36.1835 63.0868 37.0237 63.1097 38.1052C63.1325 39.1861 63.1147 40.2679 63.1147 41.4503C64.3086 41.4503 65.4354 41.4503 66.7093 41.4503C66.7093 40.3565 66.6978 39.2843 66.7124 38.2124C66.7283 37.0417 67.4858 36.1815 68.4843 36.1682C69.4882 36.1548 70.293 37.011 70.2977 38.1691C70.3117 41.6078 70.3101 45.0465 70.2987 48.4851C70.2948 49.6564 69.5271 50.5166 68.5287 50.5305C67.5247 50.5445 66.7325 49.6883 66.7132 48.5307C66.6952 47.4554 66.7094 46.3796 66.7094 45.1467C65.7169 45.1467 64.8335 45.1467 63.8443 45.1477Z" fill="#9D9D9C"/>
<path d="M49.4482 50.4343C48.2256 50.6942 47.4178 50.2273 46.9431 49.0513C46.9286 45.4656 46.9336 41.956 46.9442 38.4465C46.949 36.8553 47.65 36.1671 49.2669 36.1638C51.3952 36.1594 53.5235 36.1524 55.6517 36.1668C56.9654 36.1756 57.7096 36.9287 57.721 38.2496C57.7349 39.8551 57.7352 41.4608 57.7209 43.0662C57.7092 44.3833 56.9617 45.1319 55.6457 45.1435C54.007 45.1579 52.368 45.1469 50.537 45.1469C50.537 46.2117 50.4892 47.2048 50.5507 48.1911C50.6103 49.1481 50.2782 49.8562 49.4482 50.4343ZM54.1277 40.9595C54.1103 40.6 54.0928 40.2406 54.0736 39.8446C52.868 39.8446 51.7468 39.8446 50.6119 39.8446C50.6119 40.4329 50.6119 40.9325 50.6119 41.553C51.5261 41.553 52.3717 41.5872 53.2119 41.535C53.5195 41.5159 53.8144 41.2918 54.1277 40.9595Z" fill="#9D9D9C"/>
<path d="M50.1952 24.1909C49.325 23.2944 48.5204 22.4306 47.7362 21.5487C47.1821 20.9257 46.6717 20.2642 47.076 19.3554C47.6014 18.1746 48.7911 17.8181 49.8241 18.6386C50.8651 19.4656 51.7968 20.4301 52.8438 21.3513C53.2616 21.7962 53.5818 22.2539 53.968 22.6468C55.4871 24.1919 57.0296 25.7139 58.558 27.2499C59.6741 28.3716 59.8162 29.4478 58.969 30.2634C58.1508 31.0511 57.1073 30.9075 56.0351 29.8416C54.3925 28.2085 52.7608 26.5644 51.1167 24.9328C50.855 24.6731 50.553 24.4539 50.1952 24.1909Z" fill="#F9E315"/>
<path d="M54.1214 41.0595C53.8144 41.2909 53.5195 41.515 53.2119 41.5342C52.3717 41.5864 51.5261 41.5521 50.6118 41.5521C50.6118 40.9317 50.6118 40.4321 50.6118 39.8438C51.7468 39.8438 52.8679 39.8438 54.0736 39.8438C54.0928 40.2397 54.1102 40.5992 54.1214 41.0595Z" fill="#7FD99E"/>
</g>
<defs>
<clipPath id="clip0_1803_101">
<rect width="115" height="115" fill="white"/>
</clipPath>
</defs>
</svg>
