<svg width="142" height="142" viewBox="0 0 142 142" fill="none" xmlns="http://www.w3.org/2000/svg">
<circle cx="71" cy="71" r="71" fill="#F9E315"/>
<line x1="14.3803" y1="70.3535" x2="31.3803" y2="80.3535" stroke="#565347" stroke-width="1.5"/>
<line x1="42.6544" y1="51.6335" x2="56.6544" y2="76.6335" stroke="#565347" stroke-width="1.5"/>
<line x1="70.75" y1="63" x2="70.75" y2="76" stroke="#565347" stroke-width="1.5"/>
<line x1="100.641" y1="52.39" x2="86.6406" y2="75.39" stroke="#565347" stroke-width="1.5"/>
<line x1="128.424" y1="70.619" x2="109.424" y2="83.619" stroke="#565347" stroke-width="1.5"/>
<path d="M30 79C30 76.2386 32.2386 74 35 74H107C109.761 74 112 76.2386 112 79V130C112 132.761 109.761 135 107 135H35C32.2386 135 30 132.761 30 130V79Z" fill="#474F58"/>
<rect x="34" y="78" width="74" height="49" fill="#68E1FD"/>
<path d="M30.4005 130.523C30.7485 130.894 31.1582 130.737 31.5092 130.737C40.1474 130.744 48.7857 130.752 57.4238 130.721C58.1673 130.718 58.6856 130.874 58.9248 131.585C59.4675 133.199 60.5911 133.499 62.2099 133.473C68.5679 133.369 74.9286 133.416 81.2881 133.449C82.0932 133.453 82.6769 133.307 82.9496 132.498C83.4427 131.035 84.428 130.683 85.962 130.699C94.5312 130.789 103.102 130.743 111.771 130.734C113.433 130.721 114.996 130.74 116.559 130.706C117.411 130.687 117.648 131.056 117.468 131.838C116.706 135.155 114.269 137.078 110.995 137.055C104.029 137.007 97.0633 137.037 90.0976 137.047C89.5419 137.048 89.0127 136.886 88.5817 137.658C88.3346 138.101 87.2975 137.943 86.5571 137.895C86.587 137.574 86.8237 137.327 86.2305 137.33C80.9032 137.362 75.5757 137.348 70.2483 137.348C65.4537 137.348 60.6591 137.348 55.7176 137.348C57.3422 137.84 54.3095 136.958 55.7176 137.836C54.7069 138.348 55.1476 137.951 56.5 138.5C55.7703 138.444 55.9099 138.193 55.1519 138.263C54.7498 138.301 54.3772 138.201 54.1855 137.836C53.8055 137.112 53.1761 137.034 52.4604 137.035C45.1562 137.044 37.852 137.039 30.5478 137.041C28.3532 137.042 24.7967 134.365 25.0575 131.546C25.121 130.859 25.3439 130.715 25.9725 130.698C27.4232 130.659 28.8865 130.912 30.4005 130.523Z" fill="#666666"/>
<path d="M11.0761 62.9921C10.6931 63.0193 10.3736 62.9742 10 62.886C10.8559 53.6188 11.7659 44.3947 12.6946 35.0732C13.0141 34.9854 13.3148 34.9952 13.6923 35.0091C14.2093 36.0064 13.9413 37.0506 13.8387 38.0386C13.1256 44.9046 12.5144 51.7842 11.7656 58.6454C11.6087 60.0828 11.6049 61.5446 11.0761 62.9921Z" fill="#57544A"/>
<path d="M132.909 62.6867C132.627 63.0561 132.319 62.9942 131.95 62.9985C131.539 62.6563 131.449 62.1996 131.402 61.7098C130.631 53.6092 129.846 45.5106 129.054 37.4127C129.012 36.9765 128.904 36.535 129.201 36.0596C129.566 35.9942 129.863 35.991 130.233 36.0104C130.666 36.7702 130.568 37.6039 130.645 38.3947C130.897 40.9893 131.19 43.5791 131.354 46.2789C131.334 46.4791 131.334 46.5829 131.356 46.7607C131.72 48.4712 131.841 50.1547 132.007 51.8149C132.354 55.2988 132.569 58.8015 132.997 62.2765C133.011 62.3879 132.976 62.4941 132.909 62.6867Z" fill="#57544A"/>
<path d="M113.669 80.0475C113.644 79.9947 113.682 79.9176 113.783 79.8125C113.808 79.8641 113.77 79.9436 113.669 80.0475Z" fill="#F5E39B"/>
<path d="M64.6803 8C65.0413 8.3352 65.0068 8.74243 64.9912 9.23163C64.8817 9.86333 64.4013 9.76649 64.055 9.84359C57.8974 11.2146 51.7384 12.5796 45.5711 13.906C45.1857 13.9889 44.7998 14.0934 44.3335 13.8434C43.9179 13.4429 44.001 13.0123 44.0185 12.5111C48.8055 11.3977 53.576 10.372 58.3469 9.34775C60.4256 8.90149 62.5049 8.45838 64.6803 8Z" fill="#57544A"/>
<path d="M76.0005 9.05358C75.9943 8.6762 76.0461 8.36975 76.1519 8C82.9807 9.11731 89.7555 10.298 96.5304 11.4782C96.9336 11.5484 97.3381 11.614 97.8371 11.704C98.0721 12.0598 98.0379 12.3884 97.8302 12.768C97.3667 13.0865 96.9185 13.0096 96.4731 12.9296C90.2863 11.8174 84.0814 10.7734 77.8927 9.66844C77.2575 9.55503 76.5848 9.49298 76.0005 9.05358Z" fill="#57544A"/>
<path d="M107.703 43.8777C112.737 40.2255 117.719 36.6331 122.761 33.0137C123.002 33.2593 123.183 33.5319 123.364 33.864C118.395 37.5281 113.424 41.1326 108.393 44.7734C107.763 44.7871 107.647 44.4086 107.703 43.8777Z" fill="#575448"/>
<path d="M123.436 27C117.938 23.7609 112.509 20.484 107.01 17.1751C106.954 16.7 107.136 16.3392 107.505 16C113.005 19.2385 118.439 22.515 123.946 25.8277C124.128 26.3714 123.823 26.6699 123.436 27Z" fill="#565449"/>
<path d="M19.3044 32.5827C21.3826 33.9096 23.4197 35.2384 25.3972 36.6431C26.1311 37.1645 26.453 37.1188 26.9178 36.3354C30.538 30.2336 34.2077 24.1585 37.9043 18.0109C38.3765 17.9565 38.7193 18.0997 38.9157 18.5822C39.1546 19.1461 38.8327 19.515 38.6084 19.8826C35.2566 25.3761 31.9737 30.907 28.6797 36.4318C27.8362 37.8465 27.8381 37.8305 29.1758 38.7681C31.631 40.4888 34.1993 42.0612 36.6306 43.9463C36.8554 44.5536 36.5802 44.897 36.0501 45.1971C35.4457 45.3381 35.0996 45.0147 34.7187 44.7717C32.3483 43.2598 30.068 41.6264 27.7237 40.0788C27.0464 39.6316 26.7098 39.6942 26.3096 40.3868C23.5808 45.1092 20.7774 49.7923 18.0007 54.4895C16.2629 57.4291 14.546 60.3799 12.7879 63.3086C12.6356 63.5622 12.5118 63.8362 12.1622 64C11.6389 63.9923 11.2858 63.831 11 63.4188C15.6692 55.3723 20.3459 47.3846 25.0916 39.434C25.6462 38.5048 25.4919 38.1062 24.6195 37.5559C22.6573 36.3182 20.7681 34.9758 18.7822 33.6394C18.7332 33.1983 18.9547 32.8914 19.3044 32.5827Z" fill="#565449"/>
<path d="M34.2896 18.0032C29.5024 20.9242 24.7076 23.775 19.8451 26.6565C19.499 26.4541 19.3249 26.1709 19.3543 25.7199C24.1211 22.8295 28.8816 20.0122 33.702 17.1523C34.1505 17.2483 34.0959 17.6667 34.2896 18.0032Z" fill="#565449"/>
<path d="M99 19.9137C96.1311 23.8331 93.2443 27.6956 90.3026 31.5177C89.8659 32.0851 89.9628 32.4 90.3473 32.8899C92.99 36.2574 95.6086 39.6431 98.2285 43.0277C98.4482 43.3115 98.6207 43.6305 98.8726 43.9797C99.2598 44.8096 98.5594 44.7899 98.062 44.9855C96.9157 44.0669 96.1858 42.8839 95.3409 41.8018C93.4824 39.4213 91.6018 37.0569 89.7821 34.6472C89.0737 33.7091 89.0522 33.7123 88.3169 34.6787C83.9113 40.4692 79.4995 46.2552 75.1464 52.0839C74.9062 52.4055 74.6711 52.7287 74.2437 52.9773C73.6666 53.0731 73.3021 52.8637 73.0071 52.3858C72.9393 51.7029 73.372 51.3198 73.6939 50.8923C78.1931 44.9177 82.7663 38.9971 87.2443 33.0068C87.7402 32.3435 87.6907 31.9439 87.2062 31.3273C82.672 25.5576 78.2302 19.7187 73.6777 13.9624C73.4126 13.6272 73.0712 13.3217 73.0805 12.7997C73.2802 12.3338 73.6326 12.157 74.0693 12C78.9216 18.1635 83.7102 24.3267 88.4909 30.4959C88.8185 30.9186 89.0214 31.2396 89.5063 30.5871C92.2758 26.8612 95.083 23.1622 97.9013 19.3818C98.4128 19.2237 98.6871 19.5364 99 19.9137Z" fill="#555349"/>
<path d="M101.958 18.0001C102.013 26.5314 102.005 35.0523 101.985 43.6867C101.932 43.92 101.868 43.987 101.721 44C101.492 43.9427 101.336 43.8502 101.172 43.5794C101.058 43.1491 101.074 42.777 101 42.3167C101.007 34.1915 100.979 26.1823 101.072 18.0953C101.387 18.0081 101.641 17.9989 101.958 18.0001Z" fill="#4E5147"/>
<path d="M39 44.63C39.0434 36.1595 39.1461 27.7981 39.2475 19.3195C39.672 19.1363 40.0978 19.0703 40.618 19C41.1646 19.1965 40.9626 19.5732 40.9673 19.8787C41.0647 26.1215 40.8364 32.3625 40.7924 38.6046C40.7793 40.4607 40.8945 42.3412 40.5397 44.3123C40.1794 45.1718 39.671 45.1634 39 44.63Z" fill="#57544A"/>
<path d="M45.1397 50.6007C44.915 50.1368 44.9767 49.7192 45.2154 49.2488C45.6551 48.867 46.0559 49.0135 46.4556 49.1097C52.7001 50.6119 58.8985 52.3051 65.142 53.8118C65.7761 53.9648 66.4261 54.1295 66.9998 54.6762C67.0037 55.1489 66.9515 55.5336 66.8473 56C59.89 54.3299 52.9848 52.5779 46.0793 50.8271C45.7999 50.7562 45.5179 50.6957 45.1397 50.6007Z" fill="#555347"/>
<path d="M14 64.0794C21.0545 59.6866 28.1109 55.3616 35.2401 51C35.7026 51.1054 35.8546 51.4313 36 51.8451C28.9329 56.2696 21.8566 60.6184 14.7131 65C14.3084 64.8198 14.1107 64.5132 14 64.0794Z" fill="#575448"/>
<path d="M107.961 52.6381C108.085 52.2724 108.258 51.955 108.484 51.5996C114.873 55.63 121.209 59.6983 127.601 63.802C127.628 64.2341 127.42 64.5208 127.042 64.7497C120.839 60.8234 114.697 56.8873 108.553 52.9547C108.384 52.8465 108.191 52.7749 107.961 52.6381Z" fill="#575448"/>
<path d="M67.4987 13.0601C60.7847 21.9586 54.0503 30.7994 47.3148 39.6393C46.4496 40.7748 45.5785 41.9058 44.6761 43.1007C44.2071 43.2288 43.9553 42.9554 43.6821 42.5997C49.6012 34.7239 55.5525 26.9104 61.5037 19.0971C63.1719 16.907 64.8403 14.7171 66.5417 12.4672C66.9751 12.4549 67.2338 12.7175 67.4987 13.0601Z" fill="#555349"/>
<path d="M101.982 41.4693C101.978 41.5364 101.907 41.532 101.871 41.5291C101.84 41.3242 101.845 41.1224 101.874 40.8535C101.928 40.9917 101.957 41.197 101.982 41.4693Z" fill="#ED8059"/>
<path d="M77.4293 92.0253C79.8355 92.9458 81.9673 94.1588 83.8578 95.8134C84.458 96.3387 84.6432 96.6941 83.9567 97.2307C83.7177 97.4174 83.511 97.6495 83.3079 97.8772C82.9926 98.2307 82.7293 98.2191 82.3763 97.8851C78.9546 94.6475 74.844 93.3252 70.187 93.5415C66.3788 93.7183 63.0746 95.1396 60.2704 97.6799C59.6413 98.2498 59.2911 98.1959 58.8282 97.6102C58.6608 97.3983 58.462 97.2073 58.2579 97.0291C57.8418 96.6657 57.9267 96.3582 58.3045 96.0216C61.464 93.2071 65.1233 91.5578 69.3474 91.0906C72.1026 90.7859 74.7404 91.2142 77.4293 92.0253Z" fill="#F3FCFC"/>
<path d="M67.8167 98.519C66.1574 99.0229 64.718 99.773 63.4918 100.882C62.9421 101.38 62.5694 101.42 62.0256 100.831C60.9749 99.6935 60.9507 99.6618 62.2054 98.6903C66.4731 95.3858 71.1922 94.7726 76.2344 96.4332C77.9139 96.9863 79.4072 97.961 80.7439 99.1418C81.1345 99.4868 81.4779 99.8959 80.8713 100.281C80.3473 100.614 80.1469 101.853 79.136 101.002C76.5452 98.8191 73.5667 97.8413 70.1822 98.0409C69.3898 98.0876 68.6463 98.2899 67.8167 98.519Z" fill="#F3FCFC"/>
<path d="M69.5928 100.316C72.6171 99.7424 75.1496 100.668 77.4607 102.413C77.9516 102.783 78.1203 103.17 77.558 103.636C77.2978 103.851 77.0492 104.09 76.8352 104.35C76.492 104.768 76.2163 104.704 75.8422 104.36C73.4866 102.191 69.2412 102.113 66.7428 104.199C66.0067 104.814 65.6372 104.632 64.7238 103.499C64.1351 102.769 64.835 102.526 65.1938 102.234C66.4504 101.21 67.9081 100.6 69.5928 100.316Z" fill="#F3FCFC"/>
<circle cx="9" cy="68" r="7" fill="#F07F59"/>
<circle cx="9" cy="68" r="3" fill="#DB674A"/>
<circle cx="40" cy="48" r="7" fill="#F07F59"/>
<circle cx="40" cy="48" r="3" fill="#DB674A"/>
<circle cx="71" cy="56" r="7" fill="#F07F59"/>
<circle cx="71" cy="56" r="3" fill="#DB674A"/>
<circle cx="103" cy="48" r="7" fill="#F07F59"/>
<circle cx="103" cy="48" r="3" fill="#DB674A"/>
<circle cx="133" cy="68" r="7" fill="#F07F59"/>
<circle cx="133" cy="68" r="3" fill="#DB674A"/>
<circle cx="129" cy="30" r="7" fill="#F07F59"/>
<circle cx="129" cy="30" r="3" fill="#DB674A"/>
<circle cx="102" cy="14" r="7" fill="#F07F59"/>
<circle cx="102" cy="14" r="3" fill="#DB674A"/>
<circle cx="71" cy="7" r="7" fill="#F07F59"/>
<circle cx="71" cy="7" r="3" fill="#DB674A"/>
<circle cx="71" cy="7" r="7" fill="#F07F59"/>
<circle cx="71" cy="7" r="3" fill="#DB674A"/>
<circle cx="40" cy="14" r="7" fill="#F07F59"/>
<circle cx="40" cy="14" r="3" fill="#DB674A"/>
<circle cx="14" cy="30" r="7" fill="#F07F59"/>
<circle cx="14" cy="30" r="3" fill="#DB674A"/>
<path d="M52 137H91V139H52V137Z" fill="#F9E315"/>
<rect x="30" y="129" width="82" height="2" fill="#474F58"/>
<rect x="25" y="130" width="5" height="1" fill="#F5FAFA"/>
<rect x="112" y="130" width="6" height="1" fill="#F5FAFA"/>
</svg>
